<?xml version="1.0" standalone="no"?>
<!DOCTYPE svg PUBLIC "-//W3C//DTD SVG 20010904//EN"
 "http://www.w3.org/TR/2001/REC-SVG-20010904/DTD/svg10.dtd">
<svg version="1.0" xmlns="http://www.w3.org/2000/svg"
 width="1024.000000pt" height="1024.000000pt" viewBox="0 0 1024.000000 1024.000000"
 preserveAspectRatio="xMidYMid meet">
<metadata>
Created by potrace 1.14, written by Peter Selinger 2001-2017
</metadata>
<g transform="translate(0.000000,1024.000000) scale(0.100000,-0.100000)"
fill="#000000" stroke="none">
<path d="M0 5120 l0 -5120 5120 0 5120 0 0 5120 0 5120 -5120 0 -5120 0 0
-5120z m4669 3456 c-2 -2 -80 -43 -174 -89 -293 -147 -460 -264 -675 -473 -75
-72 -156 -141 -180 -154 -25 -12 -115 -69 -200 -126 -625 -416 -1093 -975
-1359 -1623 -165 -400 -242 -795 -242 -1236 -1 -376 40 -662 142 -1003 155
-519 415 -955 816 -1372 l138 -143 1 -207 c1 -192 0 -206 -15 -191 -9 9 -50
43 -91 76 -110 86 -370 352 -486 495 -478 593 -750 1264 -815 2009 -19 220 -7
637 25 849 30 195 81 408 151 622 161 492 439 951 832 1375 521 561 1168 942
1954 1150 165 44 186 48 178 41z m410 -130 c-2 -2 -55 -32 -117 -65 -282 -154
-561 -355 -982 -705 -246 -206 -326 -280 -347 -320 -9 -18 -18 -26 -21 -18 -9
29 202 313 342 459 262 275 586 465 1096 646 19 7 35 8 29 3z m2986 -831 c178
-46 330 -181 399 -355 65 -163 46 -389 -44 -530 -38 -59 -130 -148 -191 -183
-221 -129 -520 -90 -699 92 -108 110 -180 281 -180 431 0 243 183 478 426 545
67 18 217 18 289 0z m-2465 -201 c370 -40 793 -161 1087 -310 245 -123 407
-254 485 -388 22 -39 72 -114 109 -167 136 -191 163 -284 156 -544 -4 -142 -9
-185 -30 -260 -35 -125 -44 -140 -88 -161 -22 -9 -65 -34 -97 -55 l-57 -38
-16 87 c-32 170 -96 283 -239 422 -48 47 -128 114 -178 149 -51 36 -92 68 -92
72 0 3 13 35 29 70 32 71 69 212 72 274 3 74 -1 93 -30 124 -23 24 -37 31 -67
31 -31 0 -43 -7 -73 -41 -125 -145 -230 -213 -367 -238 -67 -13 -75 -12 -160
12 -49 14 -182 48 -296 76 -249 62 -401 75 -682 61 -619 -32 -1119 -214 -1527
-556 -173 -146 -262 -294 -289 -483 l-12 -79 -61 43 c-34 23 -81 52 -104 64
-39 19 -44 26 -64 93 -55 185 -71 350 -50 513 30 225 146 442 331 619 265 252
816 483 1387 581 319 54 607 63 923 29z m2954 -1032 c43 -86 124 -285 165
-410 123 -369 175 -713 175 -1137 -1 -351 -33 -606 -119 -945 -177 -693 -597
-1357 -1173 -1854 -56 -49 -104 -87 -106 -85 -1 2 1 45 6 94 4 50 5 140 2 202
l-6 111 108 114 c553 575 842 1176 951 1978 28 208 26 642 -5 845 -49 332
-137 649 -242 875 l-49 104 60 30 c33 17 90 54 127 82 37 28 70 49 75 47 4 -2
18 -26 31 -51z m-3047 -53 c35 -5 122 -34 193 -65 72 -30 161 -62 198 -69 147
-32 310 -9 440 60 36 19 67 33 70 31 11 -12 -102 -162 -182 -241 -139 -138
-258 -206 -442 -257 -116 -31 -353 -32 -477 0 -235 59 -427 184 -544 354 -54
79 -87 137 -80 144 11 12 249 47 362 54 149 9 371 4 462 -11z m-1051 -161
c179 -382 564 -628 1023 -655 359 -20 735 134 953 393 73 86 93 94 104 45 74
-313 140 -471 271 -646 l68 -90 3 -186 c5 -263 -11 -466 -47 -609 -75 -292
-226 -530 -459 -723 -73 -61 -195 -147 -206 -147 -4 0 -6 15 -6 34 0 52 -38
141 -81 190 -88 100 -216 148 -341 128 -107 -16 -180 -57 -279 -156 l-84 -86
-80 7 c-195 14 -404 -77 -520 -227 -22 -29 -47 -61 -55 -72 -15 -19 -17 -19
-115 17 -231 83 -404 184 -562 327 -220 199 -338 382 -432 666 -44 135 -89
423 -75 478 3 10 37 42 76 69 310 218 489 584 505 1033 l6 153 31 16 c29 15
254 102 267 103 3 0 19 -28 35 -62z m-593 -285 c-15 -266 -125 -518 -296 -680
l-62 -58 -7 50 c-10 75 -9 240 2 324 13 102 53 182 126 255 82 82 205 174 235
176 4 0 5 -30 2 -67z m-1402 -324 c291 -95 649 -278 767 -392 l42 -41 0 -97 0
-97 -52 28 c-66 36 -208 93 -215 87 -7 -7 43 -103 93 -177 46 -70 110 -141
161 -180 29 -23 33 -34 48 -125 10 -55 21 -110 26 -122 11 -29 0 -29 -54 -2
-176 90 -397 314 -565 574 -72 110 -322 543 -322 557 0 11 -3 11 71 -13z
m5533 -1 c-8 -27 -113 -215 -237 -425 -159 -268 -351 -502 -512 -625 -60 -45
-144 -93 -151 -86 -2 3 3 39 11 82 8 43 15 97 15 121 0 39 4 47 40 75 50 40
159 184 205 271 19 37 35 70 35 73 0 14 -31 3 -145 -49 -65 -30 -120 -55 -122
-55 -2 0 -3 44 -3 99 l0 98 49 46 c92 86 298 205 481 278 102 40 317 117 333
118 5 1 5 -9 1 -21z m-5586 -908 c94 -58 96 -206 3 -255 -39 -19 -104 -19
-147 1 -45 22 -79 90 -71 146 14 103 129 160 215 108z m5703 -3 c118 -78 72
-266 -65 -270 -152 -4 -213 194 -83 273 44 27 105 26 148 -3z m-218 -507 c76
-36 150 -110 182 -181 23 -51 27 -76 27 -141 -1 -140 -64 -235 -194 -292 -29
-13 -65 -26 -80 -30 -15 -3 -29 -15 -33 -26 -12 -37 -54 -60 -109 -60 -85 0
-134 54 -122 134 11 68 47 110 123 146 142 66 152 72 161 99 24 68 -36 137
-117 135 -63 -2 -105 -25 -136 -74 -42 -67 -125 -76 -185 -20 -87 82 23 260
201 324 67 24 219 17 282 -14z m-5202 6 c107 -25 191 -92 231 -185 29 -68 23
-178 -16 -250 -22 -43 -27 -62 -22 -93 8 -50 -13 -90 -58 -112 -96 -45 -176
11 -176 125 0 24 13 70 31 110 48 110 22 169 -74 169 -42 0 -54 -5 -82 -33
-44 -44 -51 -74 -35 -159 12 -63 12 -73 -4 -103 -21 -38 -52 -55 -102 -55 -83
0 -138 90 -139 225 0 67 5 90 29 142 50 109 164 200 279 222 61 13 76 12 138
-3z m3168 -505 c47 -33 65 -68 65 -124 0 -60 -13 -88 -88 -187 -73 -98 -101
-183 -93 -284 l7 -73 -98 -86 c-53 -47 -144 -135 -202 -196 -116 -123 -145
-147 -163 -133 -7 5 -45 21 -86 36 -89 32 -198 102 -235 151 -15 19 -41 65
-59 103 -30 62 -32 75 -32 172 0 97 2 110 32 172 85 179 258 261 452 213 l71
-17 38 27 c20 15 82 74 137 130 105 108 140 128 200 118 17 -2 41 -12 54 -22z
m-2845 -141 c53 -26 76 -59 82 -118 5 -59 -17 -107 -66 -140 -29 -20 -44 -23
-88 -20 -45 4 -59 10 -89 40 -56 56 -63 148 -16 201 21 23 89 56 117 57 11 0
38 -9 60 -20z m3686 -104 c60 -40 234 -228 294 -319 59 -89 140 -243 151 -287
l6 -26 -343 0 -342 -1 -44 -48 -43 -48 -169 169 c-94 92 -182 175 -196 184
-22 13 -25 20 -21 54 8 61 48 129 87 148 19 9 73 34 120 56 91 44 226 130 298
192 l45 38 61 -45 c33 -24 77 -54 96 -67z m-2742 50 c148 -119 344 -226 538
-295 l121 -43 5 -101 c3 -56 13 -128 22 -160 l18 -58 -29 -21 c-69 -53 -135
-133 -278 -336 -27 -39 -56 -74 -62 -76 -16 -6 -34 18 -175 224 -62 90 -124
171 -138 178 -20 10 -96 12 -357 8 -247 -3 -333 -1 -333 8 0 19 105 220 150
287 60 89 147 193 222 266 59 58 203 170 221 172 4 1 38 -23 75 -53z m3762
-128 c55 -38 75 -73 75 -133 0 -154 -197 -212 -283 -83 -69 104 3 238 128 238
32 0 57 -7 80 -22z m-1735 -623 l80 -75 -30 -26 c-16 -14 -129 -124 -251 -244
l-220 -219 -79 74 -80 74 41 43 c22 24 73 79 114 123 83 90 328 325 338 325 4
0 43 -34 87 -75z m-498 -865 c66 -61 128 -126 137 -144 37 -79 8 -229 -58
-299 -70 -74 -51 -72 -536 -75 -239 -2 -464 0 -500 3 -61 6 -68 10 -111 55
-65 67 -89 135 -89 254 0 108 17 175 60 235 62 85 38 81 535 81 l441 0 121
-110z m-1362 33 c-57 -120 -62 -311 -11 -470 7 -23 7 -23 -97 -23 -105 0 -105
0 -131 30 -38 46 -48 100 -44 230 3 93 8 123 25 155 46 86 112 124 220 125
l61 0 -23 -47z"/>
<path d="M6305 5433 c-40 -10 -461 -185 -494 -205 -39 -25 -65 -78 -56 -119 8
-36 58 -79 93 -79 14 0 82 26 151 59 69 32 187 82 261 111 147 58 190 89 190
139 0 39 -34 78 -78 91 -20 5 -39 9 -42 9 -3 -1 -14 -4 -25 -6z"/>
<path d="M4130 5413 c-37 -25 -49 -45 -50 -76 0 -53 28 -87 90 -108 32 -11
107 -44 361 -160 104 -47 137 -49 181 -10 25 22 32 37 32 65 0 75 -23 90 -336
225 -194 84 -235 94 -278 64z"/>
<path d="M4295 5007 c-127 -52 -189 -140 -190 -267 -1 -258 312 -369 485 -173
116 132 74 340 -84 420 -59 30 -163 40 -211 20z"/>
<path d="M6024 5009 c-59 -17 -126 -71 -157 -127 -61 -109 -47 -240 35 -328
129 -140 359 -104 451 70 33 62 30 174 -5 242 -63 120 -199 180 -324 143z"/>
<path d="M5200 4266 c-72 -15 -165 -62 -196 -99 -42 -50 -23 -135 35 -155 34
-12 52 -8 135 32 50 25 67 28 120 23 39 -3 85 -16 128 -36 63 -31 68 -31 101
-17 41 17 57 41 57 90 0 48 -38 89 -113 125 -56 27 -157 52 -196 50 -9 0 -41
-6 -71 -13z"/>
</g>
</svg>
